<svg width="180" height="249" viewBox="0 0 180 249" fill="none" xmlns="http://www.w3.org/2000/svg">
<path d="M54.7794 5.20427C54.1849 3.42668 56.0541 1.98506 57.5805 3.07295C72.057 13.3909 117.508 50.4959 145.319 126.434C172.904 201.755 178.579 236.237 179.72 245.983C179.888 247.415 178.51 248.43 177.157 247.933C168.052 244.591 139.037 234.527 118.909 234.178C98.2752 233.82 68.9004 243.358 57.6387 247.316C55.9411 247.913 54.2886 246.134 54.9942 244.479C60.5581 231.426 76.1337 191.767 80.5789 147.334C85.2526 100.617 61.5714 25.5138 54.7794 5.20427Z" fill="#1E1E1E"/>
<path d="M75.5374 88.5518C76.3682 86.4691 73.6787 84.7036 72.1733 86.3654C59.4021 100.463 34.3993 130.035 23.353 156.741C10.663 187.421 2.86033 216.645 0.649924 225.373C0.318594 226.682 1.35663 227.905 2.70316 227.814C9.59942 227.346 28.0947 226.146 39.3389 225.919C48.6083 225.733 54.8957 226.558 58.3707 227.224C59.8595 227.51 61.3295 226.196 61.1052 224.697C59.7831 215.859 56.5207 190.284 57.7805 160.122C58.8787 133.828 69.3719 104.009 75.5374 88.5518Z" fill="#1E1E1E"/>
</svg>
