<svg width="281" height="381" viewBox="0 0 281 381" fill="none" xmlns="http://www.w3.org/2000/svg">
<path d="M99.7794 5.20427C99.1849 3.42668 101.054 1.98506 102.58 3.07295C117.057 13.3909 162.508 50.4959 190.319 126.434C217.904 201.755 223.579 236.237 224.72 245.983C224.888 247.415 223.51 248.43 222.157 247.933C213.052 244.591 184.037 234.527 163.909 234.178C143.275 233.82 113.9 243.358 102.639 247.316C100.941 247.913 99.2886 246.134 99.9942 244.479C105.558 231.426 121.134 191.767 125.579 147.334C130.253 100.617 106.571 25.5138 99.7794 5.20427Z" fill="white"/>
<path d="M120.537 88.5518C121.368 86.4691 118.679 84.7036 117.173 86.3654C104.402 100.463 79.3993 130.035 68.353 156.741C55.663 187.421 47.8603 216.645 45.6499 225.373C45.3186 226.682 46.3566 227.905 47.7032 227.814C54.5994 227.346 73.0947 226.146 84.3389 225.919C93.6083 225.733 99.8957 226.558 103.371 227.224C104.86 227.51 106.329 226.196 106.105 224.697C104.783 215.859 101.521 190.284 102.78 160.122C103.879 133.828 114.372 104.009 120.537 88.5518Z" fill="white"/>
<path d="M61.184 273.968C58.0267 272.347 54.5707 270.939 50.816 269.744C47.0613 268.549 43.392 267.952 39.808 267.952C34.8587 267.952 30.8907 269.104 27.904 271.408C25.0027 273.712 23.552 276.784 23.552 280.624C23.552 283.525 24.4907 286 26.368 288.048C28.2453 290.011 30.72 291.717 33.792 293.168C36.864 294.619 40.064 295.984 43.392 297.264C46.2933 298.373 49.152 299.611 51.968 300.976C54.784 302.341 57.3013 304.048 59.52 306.096C61.824 308.144 63.616 310.661 64.896 313.648C66.2613 316.635 66.944 320.347 66.944 324.784C66.944 329.648 65.7067 334.085 63.232 338.096C60.8427 342.107 57.3867 345.264 52.864 347.568C48.3413 349.872 42.9653 351.024 36.736 351.024C32.64 351.024 28.7147 350.555 24.96 349.616C21.2907 348.677 17.8773 347.483 14.72 346.032C11.5627 344.496 8.74667 342.917 6.272 341.296L11.776 331.568C13.824 333.019 16.1707 334.427 18.816 335.792C21.4613 337.072 24.2347 338.139 27.136 338.992C30.0373 339.76 32.8533 340.144 35.584 340.144C38.4853 340.144 41.344 339.632 44.16 338.608C47.0613 337.499 49.4507 335.835 51.328 333.616C53.2053 331.397 54.144 328.453 54.144 324.784C54.144 321.627 53.2907 319.024 51.584 316.976C49.9627 314.843 47.7867 313.051 45.056 311.6C42.3253 310.064 39.424 308.699 36.352 307.504C33.4507 306.395 30.5067 305.2 27.52 303.92C24.5333 302.555 21.76 300.933 19.2 299.056C16.64 297.093 14.592 294.704 13.056 291.888C11.52 289.072 10.752 285.659 10.752 281.648C10.752 276.784 11.904 272.56 14.208 268.976C16.5973 265.307 19.84 262.448 23.936 260.4C28.032 258.267 32.7253 257.115 38.016 256.944C43.9893 256.944 49.2373 257.669 53.76 259.12C58.368 260.571 62.4213 262.363 65.92 264.496L61.184 273.968ZM106.884 351.28C101.935 351.28 97.412 350.213 93.316 348.08C89.3053 345.947 86.1053 342.832 83.716 338.736C81.412 334.555 80.26 329.477 80.26 323.504C80.26 317.616 81.4973 312.539 83.972 308.272C86.4467 303.92 89.732 300.592 93.828 298.288C98.0093 295.984 102.575 294.832 107.524 294.832C112.473 294.832 116.655 295.984 120.068 298.288C123.481 300.507 126.084 303.152 127.876 306.224L127.108 308.272L128.26 297.008H139.268V350H127.364V336.176L128.644 339.248C128.303 340.101 127.535 341.211 126.34 342.576C125.231 343.856 123.695 345.179 121.732 346.544C119.855 347.909 117.679 349.061 115.204 350C112.729 350.853 109.956 351.28 106.884 351.28ZM110.084 341.424C113.071 341.424 115.759 340.869 118.148 339.76C120.537 338.651 122.5 337.115 124.036 335.152C125.657 333.104 126.767 330.672 127.364 327.856V317.488C126.681 314.928 125.487 312.709 123.78 310.832C122.073 308.869 120.025 307.376 117.636 306.352C115.247 305.243 112.601 304.688 109.7 304.688C106.543 304.688 103.641 305.456 100.996 306.992C98.3507 308.528 96.2173 310.661 94.596 313.392C93.06 316.123 92.292 319.323 92.292 322.992C92.292 326.405 93.1027 329.52 94.724 332.336C96.3453 335.152 98.5213 337.371 101.252 338.992C103.983 340.613 106.927 341.424 110.084 341.424ZM159.868 297.008H171.772V350H159.868V297.008ZM158.972 277.808C158.972 275.931 159.697 274.352 161.148 273.072C162.684 271.792 164.348 271.152 166.14 271.152C167.932 271.152 169.511 271.792 170.876 273.072C172.327 274.352 173.052 275.931 173.052 277.808C173.052 279.771 172.327 281.392 170.876 282.672C169.511 283.867 167.932 284.464 166.14 284.464C164.348 284.464 162.684 283.824 161.148 282.544C159.697 281.264 158.972 279.685 158.972 277.808ZM192.368 250.928H204.272V350H192.368V250.928ZM235.492 297.008L236.644 312.368L236.004 310.32C237.369 307.077 239.332 304.347 241.892 302.128C244.537 299.824 247.268 298.075 250.084 296.88C252.985 295.6 255.503 294.96 257.636 294.96L256.996 306.736C252.985 306.48 249.444 307.248 246.372 309.04C243.385 310.832 240.996 313.221 239.204 316.208C237.497 319.195 236.644 322.395 236.644 325.808V350H224.868V297.008H235.492Z" fill="white"/>
</svg>
